<mxfile host="app.diagrams.net" agent="Mozilla/5.0 (Macintosh; Intel Mac OS X 10.15; rv:130.0) Gecko/20100101 Firefox/130.0" version="24.7.16">
  <diagram id="prtHgNgQTEPvFCAcTncT" name="Page-1">
    <mxGraphModel dx="1265" dy="784" grid="1" gridSize="10" guides="1" tooltips="1" connect="1" arrows="1" fold="1" page="1" pageScale="1" pageWidth="827" pageHeight="1169" math="0" shadow="0">
      <root>
        <mxCell id="0" />
        <mxCell id="1" parent="0" />
        <mxCell id="dNxyNK7c78bLwvsdeMH5-19" value="Pool" style="swimlane;html=1;childLayout=stackLayout;resizeParent=1;resizeParentMax=0;horizontal=0;startSize=20;horizontalStack=0;" parent="1" vertex="1">
          <mxGeometry x="40" y="120" width="1440" height="660" as="geometry">
            <mxRectangle x="40" y="120" width="40" height="50" as="alternateBounds" />
          </mxGeometry>
        </mxCell>
        <mxCell id="dNxyNK7c78bLwvsdeMH5-20" value="&lt;font style=&quot;font-size: 10px;&quot;&gt;Функц. заказчик сервиса&lt;/font&gt;" style="swimlane;html=1;startSize=20;horizontal=0;" parent="dNxyNK7c78bLwvsdeMH5-19" vertex="1">
          <mxGeometry x="20" width="1420" height="180" as="geometry" />
        </mxCell>
        <mxCell id="7yFVhDRadxyo9AIP417m-3" value="" style="edgeStyle=orthogonalEdgeStyle;rounded=0;orthogonalLoop=1;jettySize=auto;html=1;" edge="1" parent="dNxyNK7c78bLwvsdeMH5-20" source="dNxyNK7c78bLwvsdeMH5-23" target="7yFVhDRadxyo9AIP417m-2">
          <mxGeometry relative="1" as="geometry" />
        </mxCell>
        <mxCell id="dNxyNK7c78bLwvsdeMH5-23" value="" style="ellipse;whiteSpace=wrap;html=1;" parent="dNxyNK7c78bLwvsdeMH5-20" vertex="1">
          <mxGeometry x="40" y="40" width="40" height="40" as="geometry" />
        </mxCell>
        <mxCell id="7yFVhDRadxyo9AIP417m-2" value="Подготовка сведение о планируемых сервисах" style="whiteSpace=wrap;html=1;" vertex="1" parent="dNxyNK7c78bLwvsdeMH5-20">
          <mxGeometry x="120" y="30" width="120" height="60" as="geometry" />
        </mxCell>
        <mxCell id="dNxyNK7c78bLwvsdeMH5-21" value="Продукт ИИ" style="swimlane;html=1;startSize=20;horizontal=0;" parent="dNxyNK7c78bLwvsdeMH5-19" vertex="1">
          <mxGeometry x="20" y="180" width="1420" height="180" as="geometry" />
        </mxCell>
        <mxCell id="7yFVhDRadxyo9AIP417m-18" value="Приоритезация проектов" style="whiteSpace=wrap;html=1;" vertex="1" parent="dNxyNK7c78bLwvsdeMH5-21">
          <mxGeometry x="280" y="30" width="120" height="60" as="geometry" />
        </mxCell>
        <mxCell id="7yFVhDRadxyo9AIP417m-30" style="edgeStyle=orthogonalEdgeStyle;rounded=0;orthogonalLoop=1;jettySize=auto;html=1;entryX=0;entryY=0.5;entryDx=0;entryDy=0;" edge="1" parent="dNxyNK7c78bLwvsdeMH5-21" source="7yFVhDRadxyo9AIP417m-29" target="7yFVhDRadxyo9AIP417m-18">
          <mxGeometry relative="1" as="geometry" />
        </mxCell>
        <mxCell id="7yFVhDRadxyo9AIP417m-29" value="Внесение сведений в реестр" style="points=[[0.25,0,0],[0.5,0,0],[0.75,0,0],[1,0.25,0],[1,0.5,0],[1,0.75,0],[0.75,1,0],[0.5,1,0],[0.25,1,0],[0,0.75,0],[0,0.5,0],[0,0.25,0]];shape=mxgraph.bpmn.task;whiteSpace=wrap;rectStyle=rounded;size=10;html=1;container=1;expand=0;collapsible=0;bpmnShapeType=call;isLoopSub=1;strokeWidth=1;" vertex="1" parent="dNxyNK7c78bLwvsdeMH5-21">
          <mxGeometry x="120" y="20" width="120" height="80" as="geometry" />
        </mxCell>
        <mxCell id="7yFVhDRadxyo9AIP417m-31" value="Внесение приоритетов в реестр" style="whiteSpace=wrap;html=1;" vertex="1" parent="dNxyNK7c78bLwvsdeMH5-21">
          <mxGeometry x="535" y="30" width="120" height="60" as="geometry" />
        </mxCell>
        <mxCell id="dNxyNK7c78bLwvsdeMH5-22" value="Техком" style="swimlane;html=1;startSize=20;horizontal=0;" parent="dNxyNK7c78bLwvsdeMH5-19" vertex="1">
          <mxGeometry x="20" y="360" width="1420" height="150" as="geometry">
            <mxRectangle x="20" y="410" width="760" height="30" as="alternateBounds" />
          </mxGeometry>
        </mxCell>
        <mxCell id="7yFVhDRadxyo9AIP417m-21" value="Утверждение приоритетов" style="whiteSpace=wrap;html=1;" vertex="1" parent="dNxyNK7c78bLwvsdeMH5-22">
          <mxGeometry x="400" y="45" width="120" height="60" as="geometry" />
        </mxCell>
        <mxCell id="7yFVhDRadxyo9AIP417m-17" value="Продукт УД" style="swimlane;html=1;startSize=20;horizontal=0;" vertex="1" parent="dNxyNK7c78bLwvsdeMH5-19">
          <mxGeometry x="20" y="510" width="1420" height="150" as="geometry">
            <mxRectangle x="20" y="410" width="760" height="30" as="alternateBounds" />
          </mxGeometry>
        </mxCell>
        <mxCell id="7yFVhDRadxyo9AIP417m-26" value="" style="edgeStyle=orthogonalEdgeStyle;rounded=0;orthogonalLoop=1;jettySize=auto;html=1;" edge="1" parent="7yFVhDRadxyo9AIP417m-17" source="7yFVhDRadxyo9AIP417m-23" target="7yFVhDRadxyo9AIP417m-25">
          <mxGeometry relative="1" as="geometry" />
        </mxCell>
        <mxCell id="7yFVhDRadxyo9AIP417m-23" value="Анализ имеющихся ресурсов" style="whiteSpace=wrap;html=1;" vertex="1" parent="7yFVhDRadxyo9AIP417m-17">
          <mxGeometry x="760" y="45" width="120" height="60" as="geometry" />
        </mxCell>
        <mxCell id="7yFVhDRadxyo9AIP417m-28" value="" style="edgeStyle=orthogonalEdgeStyle;rounded=0;orthogonalLoop=1;jettySize=auto;html=1;" edge="1" parent="7yFVhDRadxyo9AIP417m-17" source="7yFVhDRadxyo9AIP417m-25" target="7yFVhDRadxyo9AIP417m-27">
          <mxGeometry relative="1" as="geometry" />
        </mxCell>
        <mxCell id="7yFVhDRadxyo9AIP417m-25" value="" style="rhombus;whiteSpace=wrap;html=1;" vertex="1" parent="7yFVhDRadxyo9AIP417m-17">
          <mxGeometry x="950" y="35" width="80" height="80" as="geometry" />
        </mxCell>
        <mxCell id="7yFVhDRadxyo9AIP417m-27" value="Выделение ресурсов на Платформе" style="whiteSpace=wrap;html=1;" vertex="1" parent="7yFVhDRadxyo9AIP417m-17">
          <mxGeometry x="1090" y="45" width="120" height="60" as="geometry" />
        </mxCell>
        <mxCell id="7yFVhDRadxyo9AIP417m-5" value="" style="edgeStyle=orthogonalEdgeStyle;rounded=0;orthogonalLoop=1;jettySize=auto;html=1;" edge="1" parent="dNxyNK7c78bLwvsdeMH5-19" source="7yFVhDRadxyo9AIP417m-2">
          <mxGeometry relative="1" as="geometry">
            <mxPoint x="200" y="200" as="targetPoint" />
          </mxGeometry>
        </mxCell>
        <mxCell id="7yFVhDRadxyo9AIP417m-20" style="edgeStyle=orthogonalEdgeStyle;rounded=0;orthogonalLoop=1;jettySize=auto;html=1;entryX=0;entryY=0.5;entryDx=0;entryDy=0;" edge="1" parent="dNxyNK7c78bLwvsdeMH5-19" source="7yFVhDRadxyo9AIP417m-18" target="7yFVhDRadxyo9AIP417m-21">
          <mxGeometry relative="1" as="geometry">
            <mxPoint x="360" y="420" as="targetPoint" />
          </mxGeometry>
        </mxCell>
        <mxCell id="7yFVhDRadxyo9AIP417m-32" value="" style="edgeStyle=orthogonalEdgeStyle;rounded=0;orthogonalLoop=1;jettySize=auto;html=1;" edge="1" parent="dNxyNK7c78bLwvsdeMH5-19" source="7yFVhDRadxyo9AIP417m-21" target="7yFVhDRadxyo9AIP417m-31">
          <mxGeometry relative="1" as="geometry" />
        </mxCell>
      </root>
    </mxGraphModel>
  </diagram>
</mxfile>
